<?xml version="1.0" encoding="utf-8"?>
<!-- Generator: Adobe Illustrator 22.1.0, SVG Export Plug-In . SVG Version: 6.00 Build 0)  -->
<svg style="enable-background:new 0 0 1200 930;" id="Layer_1" version="1.1"  viewBox="0 0 1200 930" x="0px"
	 xmlns="http://www.w3.org/2000/svg" y="0px" xml:space="preserve">
<style type="text/css">
	.st0{fill:#006533;}
	.st1{fill:#82B816;}
	.st2{fill:#F2F2F2;}
</style>
<g>
	<g>
		<path class="st0" d="M600,279c-7.3,0-14.4,0.4-21.5,1.2l6.4,58.9l111.1,29.8L725.6,479l58.5,12.9c1.3-8.8,1.9-17.7,1.9-26.9
			C786,362.3,702.7,279,600,279z"/>
	</g>
	<g>
		<path class="st1" d="M635.2,596.2l-131.2-35.2l-35.2-131.2l78.4-78.4l-6.8-62.6C466.9,313.6,414,383.1,414,465
			c0,102.7,83.3,186,186,186c80,0,148.3-50.6,174.5-121.5L715,516.4L635.2,596.2z"/>
	</g>
	<g>
		<g>
			<path class="st0" d="M670.5,446.4l-102.8-59.4c-14.5-8.4-32.7,2.1-32.7,18.9v118.1c0,16.8,18.2,27.3,32.7,18.9l102.8-59.4
				C684.8,475.3,684.8,454.7,670.5,446.4z"/>
		</g>
		<path class="st2" d="M652.6,453l-80.9-46.7c-9.2-5.3-20.8,1.3-20.8,12v93.4c0,10.7,11.5,17.3,20.8,12l80.9-46.7
			C661.8,471.7,661.8,458.3,652.6,453z"/>
	</g>
</g>
</svg>
